<svg xmlns="http://www.w3.org/2000/svg" viewBox="0 0 143.86 143.86"><defs><style>.a{fill:#fff;}.b{fill:#1d1d1b;}</style></defs><path class="a" d="M5,143.86V5H143.86V143.86ZM74.43,32.18a42.25,42.25,0,1,0,42.25,42.25A42.29,42.29,0,0,0,74.43,32.18Z" transform="translate(-2.5 -2.5)"/><path class="b" d="M141.36,7.5V141.36H7.5V7.5H141.36M74.43,119.18A44.75,44.75,0,1,0,29.68,74.43a44.79,44.79,0,0,0,44.75,44.75M146.36,2.5H2.5V146.36H146.36V2.5ZM74.43,114.18a39.75,39.75,0,1,1,39.75-39.75,39.75,39.75,0,0,1-39.75,39.75Z" transform="translate(-2.5 -2.5)"/></svg>