<svg xmlns="http://www.w3.org/2000/svg" viewBox="0 0 143.86 143.86"><defs><style>.a{fill:#fff;}.b{fill:#1d1d1b;}</style></defs><path class="a" d="M74.43,143.86a69.43,69.43,0,1,1,69.43-69.43A69.51,69.51,0,0,1,74.43,143.86Zm0-111.68a42.25,42.25,0,1,0,42.25,42.25A42.29,42.29,0,0,0,74.43,32.18Z" transform="translate(-2.5 -2.5)"/><path class="b" d="M74.43,7.5A66.93,66.93,0,1,1,7.5,74.43,67,67,0,0,1,74.43,7.5m0,111.68A44.75,44.75,0,1,0,29.68,74.43a44.79,44.79,0,0,0,44.75,44.75m0-116.68a71.93,71.93,0,1,0,71.93,71.93A71.92,71.92,0,0,0,74.43,2.5Zm0,111.68a39.75,39.75,0,1,1,39.75-39.75,39.75,39.75,0,0,1-39.75,39.75Z" transform="translate(-2.5 -2.5)"/></svg>