<svg xmlns="http://www.w3.org/2000/svg" viewBox="0 0 143.86 71.93"><defs><style>.a{fill:#fff;}.b{fill:#1d1d1b;}</style></defs><path class="a" d="M116.61,71.93a42.25,42.25,0,0,0-84.36,0H5a69.44,69.44,0,0,1,138.78,0Z" transform="translate(-2.5 -2.5)"/><path class="b" d="M74.43,7.5a67,67,0,0,1,66.74,61.93H118.9a44.75,44.75,0,0,0-88.94,0H7.68A67,67,0,0,1,74.43,7.5m0-5A71.92,71.92,0,0,0,2.5,74.43H34.68a39.75,39.75,0,0,1,79.5,0h32.18A71.92,71.92,0,0,0,74.43,2.5Z" transform="translate(-2.5 -2.5)"/></svg>